<mxfile host="app.diagrams.net" modified="2021-04-06T08:34:57.326Z" agent="5.0 (Macintosh; Intel Mac OS X 10_15_5) AppleWebKit/537.36 (KHTML, like Gecko) Chrome/89.0.4389.114 Safari/537.36" etag="4fXFCSLiKtAF0HCe9ep1" version="14.5.7" type="github">
  <diagram id="3SyprcpHxa9v9pUFkzcj" name="status">
    <mxGraphModel dx="1158" dy="773" grid="1" gridSize="10" guides="1" tooltips="1" connect="1" arrows="1" fold="1" page="1" pageScale="1" pageWidth="1100" pageHeight="850" math="0" shadow="0">
      <root>
        <mxCell id="0" />
        <mxCell id="1" parent="0" />
        <mxCell id="i3gZExjQcRAgi3sSbV-m-11" value="Accepted" style="edgeStyle=orthogonalEdgeStyle;rounded=0;orthogonalLoop=1;jettySize=auto;html=1;" edge="1" parent="1" source="i3gZExjQcRAgi3sSbV-m-1" target="i3gZExjQcRAgi3sSbV-m-5">
          <mxGeometry relative="1" as="geometry" />
        </mxCell>
        <mxCell id="i3gZExjQcRAgi3sSbV-m-14" style="edgeStyle=orthogonalEdgeStyle;rounded=0;orthogonalLoop=1;jettySize=auto;html=1;entryX=0;entryY=0.5;entryDx=0;entryDy=0;" edge="1" parent="1" source="i3gZExjQcRAgi3sSbV-m-1" target="i3gZExjQcRAgi3sSbV-m-8">
          <mxGeometry relative="1" as="geometry">
            <Array as="points">
              <mxPoint x="120" y="300" />
              <mxPoint x="120" y="715" />
            </Array>
          </mxGeometry>
        </mxCell>
        <mxCell id="i3gZExjQcRAgi3sSbV-m-16" value="Timer Out or Cancel" style="edgeStyle=orthogonalEdgeStyle;rounded=0;orthogonalLoop=1;jettySize=auto;html=1;entryX=1;entryY=0.5;entryDx=0;entryDy=0;" edge="1" parent="1" source="i3gZExjQcRAgi3sSbV-m-1" target="i3gZExjQcRAgi3sSbV-m-7">
          <mxGeometry relative="1" as="geometry">
            <Array as="points">
              <mxPoint x="480" y="300" />
              <mxPoint x="480" y="180" />
            </Array>
          </mxGeometry>
        </mxCell>
        <mxCell id="i3gZExjQcRAgi3sSbV-m-1" value="Waiting Accept" style="rounded=1;whiteSpace=wrap;html=1;" vertex="1" parent="1">
          <mxGeometry x="220" y="270" width="120" height="60" as="geometry" />
        </mxCell>
        <mxCell id="i3gZExjQcRAgi3sSbV-m-2" value="" style="ellipse;html=1;shape=startState;fillColor=#000000;strokeColor=#ff0000;" vertex="1" parent="1">
          <mxGeometry x="265" y="50" width="30" height="30" as="geometry" />
        </mxCell>
        <mxCell id="i3gZExjQcRAgi3sSbV-m-3" value="" style="edgeStyle=orthogonalEdgeStyle;html=1;verticalAlign=bottom;endArrow=open;endSize=8;strokeColor=#ff0000;entryX=0.5;entryY=0;entryDx=0;entryDy=0;" edge="1" source="i3gZExjQcRAgi3sSbV-m-2" parent="1" target="i3gZExjQcRAgi3sSbV-m-7">
          <mxGeometry relative="1" as="geometry">
            <mxPoint x="280" y="130" as="targetPoint" />
          </mxGeometry>
        </mxCell>
        <mxCell id="i3gZExjQcRAgi3sSbV-m-12" style="edgeStyle=orthogonalEdgeStyle;rounded=0;orthogonalLoop=1;jettySize=auto;html=1;entryX=0.5;entryY=0;entryDx=0;entryDy=0;" edge="1" parent="1" source="i3gZExjQcRAgi3sSbV-m-5" target="i3gZExjQcRAgi3sSbV-m-6">
          <mxGeometry relative="1" as="geometry" />
        </mxCell>
        <mxCell id="i3gZExjQcRAgi3sSbV-m-17" value="Pick up" style="edgeLabel;html=1;align=center;verticalAlign=middle;resizable=0;points=[];" vertex="1" connectable="0" parent="i3gZExjQcRAgi3sSbV-m-12">
          <mxGeometry x="-0.075" y="-2" relative="1" as="geometry">
            <mxPoint as="offset" />
          </mxGeometry>
        </mxCell>
        <mxCell id="i3gZExjQcRAgi3sSbV-m-15" style="edgeStyle=orthogonalEdgeStyle;rounded=0;orthogonalLoop=1;jettySize=auto;html=1;entryX=0;entryY=0.5;entryDx=0;entryDy=0;" edge="1" parent="1" source="i3gZExjQcRAgi3sSbV-m-5" target="i3gZExjQcRAgi3sSbV-m-8">
          <mxGeometry relative="1" as="geometry">
            <Array as="points">
              <mxPoint x="120" y="430" />
              <mxPoint x="120" y="715" />
            </Array>
          </mxGeometry>
        </mxCell>
        <mxCell id="i3gZExjQcRAgi3sSbV-m-5" value="Go to Store" style="rounded=1;whiteSpace=wrap;html=1;" vertex="1" parent="1">
          <mxGeometry x="220" y="400" width="120" height="60" as="geometry" />
        </mxCell>
        <mxCell id="i3gZExjQcRAgi3sSbV-m-13" style="edgeStyle=orthogonalEdgeStyle;rounded=0;orthogonalLoop=1;jettySize=auto;html=1;entryX=0.5;entryY=0;entryDx=0;entryDy=0;" edge="1" parent="1" source="i3gZExjQcRAgi3sSbV-m-6" target="i3gZExjQcRAgi3sSbV-m-8">
          <mxGeometry relative="1" as="geometry" />
        </mxCell>
        <mxCell id="i3gZExjQcRAgi3sSbV-m-19" style="edgeStyle=orthogonalEdgeStyle;rounded=0;orthogonalLoop=1;jettySize=auto;html=1;entryX=1;entryY=0.5;entryDx=0;entryDy=0;" edge="1" parent="1" source="i3gZExjQcRAgi3sSbV-m-6" target="i3gZExjQcRAgi3sSbV-m-7">
          <mxGeometry relative="1" as="geometry">
            <Array as="points">
              <mxPoint x="480" y="570" />
              <mxPoint x="480" y="180" />
            </Array>
          </mxGeometry>
        </mxCell>
        <mxCell id="i3gZExjQcRAgi3sSbV-m-20" value="Delivery completed" style="edgeLabel;html=1;align=center;verticalAlign=middle;resizable=0;points=[];" vertex="1" connectable="0" parent="i3gZExjQcRAgi3sSbV-m-19">
          <mxGeometry x="-0.1104" relative="1" as="geometry">
            <mxPoint as="offset" />
          </mxGeometry>
        </mxCell>
        <mxCell id="i3gZExjQcRAgi3sSbV-m-6" value="Deliver to Customer" style="rounded=1;whiteSpace=wrap;html=1;" vertex="1" parent="1">
          <mxGeometry x="220" y="540" width="120" height="60" as="geometry" />
        </mxCell>
        <mxCell id="i3gZExjQcRAgi3sSbV-m-9" style="edgeStyle=orthogonalEdgeStyle;rounded=0;orthogonalLoop=1;jettySize=auto;html=1;entryX=0;entryY=0.5;entryDx=0;entryDy=0;" edge="1" parent="1" source="i3gZExjQcRAgi3sSbV-m-7" target="i3gZExjQcRAgi3sSbV-m-8">
          <mxGeometry relative="1" as="geometry">
            <mxPoint x="50" y="711" as="targetPoint" />
            <Array as="points">
              <mxPoint x="120" y="180" />
              <mxPoint x="120" y="715" />
            </Array>
          </mxGeometry>
        </mxCell>
        <mxCell id="i3gZExjQcRAgi3sSbV-m-10" value="Receive Task" style="edgeStyle=orthogonalEdgeStyle;rounded=0;orthogonalLoop=1;jettySize=auto;html=1;entryX=0.5;entryY=0;entryDx=0;entryDy=0;" edge="1" parent="1" source="i3gZExjQcRAgi3sSbV-m-7" target="i3gZExjQcRAgi3sSbV-m-1">
          <mxGeometry relative="1" as="geometry" />
        </mxCell>
        <mxCell id="i3gZExjQcRAgi3sSbV-m-7" value="Initialize" style="rounded=1;whiteSpace=wrap;html=1;" vertex="1" parent="1">
          <mxGeometry x="220" y="150" width="120" height="60" as="geometry" />
        </mxCell>
        <mxCell id="i3gZExjQcRAgi3sSbV-m-8" value="" style="ellipse;html=1;shape=endState;fillColor=#000000;strokeColor=#ff0000;" vertex="1" parent="1">
          <mxGeometry x="265" y="700" width="30" height="30" as="geometry" />
        </mxCell>
        <mxCell id="i3gZExjQcRAgi3sSbV-m-21" value="Launch App" style="text;html=1;strokeColor=none;fillColor=none;align=center;verticalAlign=middle;whiteSpace=wrap;rounded=0;" vertex="1" parent="1">
          <mxGeometry x="230" y="30" width="100" height="20" as="geometry" />
        </mxCell>
        <mxCell id="i3gZExjQcRAgi3sSbV-m-23" value="Terminate App" style="text;html=1;strokeColor=none;fillColor=none;align=center;verticalAlign=middle;whiteSpace=wrap;rounded=0;" vertex="1" parent="1">
          <mxGeometry x="240" y="730" width="110" height="20" as="geometry" />
        </mxCell>
      </root>
    </mxGraphModel>
  </diagram>
</mxfile>
